# xmcd
#
# Track frame offsets:
#	150
#	14232
#	28597
#	39782
#	57292
#	72090
#	86442
#	101557
#	111665
#	127835
#
# Disc length: 1896 seconds
#
# Revision: 1
# Processed by: cddbd v1.5.2PL0 Copyright (c) Steve Scherf et al.
# Submitted via: audiograbber 1.83.01
#
DISCID=7f07660a
DTITLE=Lewis Niderman and Band - I´ll Be Rollin
DYEAR=1996
DGENRE=Country
TTITLE0=Falsch
TTITLE1=Gott Sei Dank Gib´s An Radio
TTITLE2=Old Man From The Mountain
TTITLE3=Last Cowboy Song
TTITLE4=I´ll Be Rollin´
TTITLE5=Out On The Water
TTITLE6=Summartime Blues
TTITLE7=Why Do I Have To Choose
TTITLE8=Mercury Blues
TTITLE9=Mammas Don´t Let Your Babies Grow Up To Be Cowboys
EXTD=
EXTT0=
EXTT1=
EXTT2=
EXTT3=
EXTT4=
EXTT5=
EXTT6=
EXTT7=
EXTT8=
EXTT9=
PLAYORDER=
